<?xml version="1.0" encoding="iso-8859-1"?>
<!-- Generator: Adobe Illustrator 19.0.0, SVG Export Plug-In . SVG Version: 6.00 Build 0)  -->
<svg version="1.1" id="Capa_1" xmlns="http://www.w3.org/2000/svg" xmlns:xlink="http://www.w3.org/1999/xlink" x="0px" y="0px"
	 viewBox="0 0 512 512" style="enable-background:new 0 0 512 512;" xml:space="preserve">
<g>
	<path style="fill:#FFCB5A;" d="M494.933,349.867v17.067c0,28.245-53.504,51.2-119.467,51.2l-1.365-0.597
		c0.87-2.56,1.331-5.239,1.365-7.936v-34.133c65.963,0,119.467-22.955,119.467-51.2V349.867z"/>
	<path style="fill:#FFCB5A;" d="M494.933,307.2v17.067c0,28.245-53.504,51.2-119.467,51.2V332.8
		c65.963,0,119.467-22.955,119.467-51.2V307.2z"/>
	<path style="fill:#FFCB5A;" d="M494.933,273.067v8.533c0,28.245-53.504,51.2-119.467,51.2V221.867
		C441.429,221.867,494.933,244.821,494.933,273.067z"/>
	<path style="fill:#FFCB5A;" d="M375.467,392.533V409.6c-0.034,2.697-0.495,5.376-1.365,7.936
		C365.227,442.027,315.733,460.8,256,460.8l-1.365-0.597c0.87-2.56,1.331-5.239,1.365-7.936v-34.133
		c65.963,0,119.467-22.955,119.467-51.2V392.533z"/>
	<path style="fill:#FFCB5A;" d="M375.467,349.867v17.067c0,28.245-53.504,51.2-119.467,51.2l-1.365-0.597
		c0.87-2.56,1.331-5.239,1.365-7.936v-34.133c65.963,0,119.467-22.955,119.467-51.2V349.867z"/>
	<path style="fill:#FFCB5A;" d="M375.467,307.2v17.067c0,28.245-53.504,51.2-119.467,51.2V332.8
		c65.963,0,119.467-22.955,119.467-51.2V307.2z"/>
	<path style="fill:#FFCB5A;" d="M375.467,264.533V281.6c0,28.245-53.504,51.2-119.467,51.2v-42.667
		c65.963,0,119.467-22.955,119.467-51.2V264.533z"/>
	<path style="fill:#FFCB5A;" d="M375.467,230.4v8.533c0,28.245-53.504,51.2-119.467,51.2V179.2
		C321.963,179.2,375.467,202.155,375.467,230.4z"/>
	<path style="fill:#FFCB5A;" d="M256,418.133v34.133c-0.034,2.697-0.495,5.376-1.365,7.936
		c-8.875,24.491-58.368,43.264-118.101,43.264c-65.963,0-119.467-22.955-119.467-51.2v-34.133l1.365-0.597
		C27.307,442.027,76.8,460.8,136.533,460.8s109.227-18.773,118.101-43.264L256,418.133z"/>
	<path style="fill:#FFCB5A;" d="M256,401.067v8.533c-0.034,2.697-0.495,5.376-1.365,7.936
		c-8.875,24.491-58.368,43.264-118.101,43.264S27.307,442.027,18.432,417.536c-0.87-2.56-1.331-5.239-1.365-7.936v-42.667
		c0,28.245,53.504,51.2,119.467,51.2S256,395.179,256,366.933V401.067z"/>
	<path style="fill:#FFCB5A;" d="M256,349.867v17.067c0,28.245-53.504,51.2-119.467,51.2s-119.467-22.955-119.467-51.2v-42.667
		c0,28.245,53.504,51.2,119.467,51.2S256,352.512,256,324.267V349.867z"/>
	<path style="fill:#FFCB5A;" d="M256,307.2v17.067c0,28.245-53.504,51.2-119.467,51.2s-119.467-22.955-119.467-51.2V281.6
		c0,28.245,53.504,51.2,119.467,51.2S256,309.845,256,281.6V307.2z"/>
	<path style="fill:#FFCB5A;" d="M256,264.533V281.6c0,28.245-53.504,51.2-119.467,51.2S17.067,309.845,17.067,281.6v-42.667
		c0,28.245,53.504,51.2,119.467,51.2S256,267.179,256,238.933V264.533z"/>
	<path style="fill:#FFCB5A;" d="M256,221.867v17.067c0,28.245-53.504,51.2-119.467,51.2s-119.467-22.955-119.467-51.2v-42.667
		c0,28.245,53.504,51.2,119.467,51.2S256,224.512,256,196.267V221.867z"/>
	<path style="fill:#FFCB5A;" d="M256,179.2v17.067c0,28.245-53.504,51.2-119.467,51.2s-119.467-22.955-119.467-51.2V153.6
		c0,28.245,53.504,51.2,119.467,51.2S256,181.845,256,153.6V179.2z"/>
	<path style="fill:#FFCB5A;" d="M256,136.533V153.6c0,28.245-53.504,51.2-119.467,51.2S17.067,181.845,17.067,153.6v-42.667
		c0,28.245,53.504,51.2,119.467,51.2S256,139.179,256,110.933V136.533z"/>
	<path style="fill:#FFCB5A;" d="M256,93.867v17.067c0,28.245-53.504,51.2-119.467,51.2s-119.467-22.955-119.467-51.2V68.267
		c0,28.245,53.504,51.2,119.467,51.2S256,96.512,256,68.267V93.867z"/>
	<path style="fill:#FFCB5A;" d="M256,59.733v8.533c0,28.245-53.504,51.2-119.467,51.2S17.067,96.512,17.067,68.267v-8.533
		c0-28.245,53.504-51.2,119.467-51.2S256,31.488,256,59.733z"/>
</g>
<g>
	<path style="fill:#EC9821;" d="M136.533,512c-72.969,0-128-25.677-128-59.733v-34.133H25.6v34.133
		c0,20.181,45.559,42.667,110.933,42.667c60.365,0,103.373-19.14,110.08-37.641c0.538-1.621,0.819-3.319,0.853-5.026v-34.133h17.067
		v34.133c-0.034,3.593-0.631,7.151-1.775,10.556C252.228,491.896,200.354,512,136.533,512z"/>
	<path style="fill:#EC9821;" d="M136.533,469.333c-63.821,0-115.695-20.105-126.123-48.887c-1.203-3.49-1.835-7.151-1.877-10.846
		v-8.533H25.6v8.533c0.043,1.809,0.358,3.601,0.956,5.316c6.605,18.21,49.613,37.35,109.978,37.35s103.373-19.14,110.08-37.641
		c0.538-1.621,0.819-3.319,0.853-5.026v-8.533h17.067v8.533c-0.034,3.593-0.631,7.151-1.775,10.556
		C252.228,449.229,200.354,469.333,136.533,469.333z"/>
	<path style="fill:#EC9821;" d="M136.533,426.667c-72.969,0-128-25.677-128-59.733H25.6c0,20.181,45.559,42.667,110.933,42.667
		s110.933-22.485,110.933-42.667h17.067C264.533,400.99,209.502,426.667,136.533,426.667z"/>
	<path style="fill:#EC9821;" d="M136.533,384c-72.969,0-128-25.677-128-59.733H25.6c0,20.181,45.559,42.667,110.933,42.667
		s110.933-22.485,110.933-42.667h17.067C264.533,358.323,209.502,384,136.533,384z"/>
	<path style="fill:#EC9821;" d="M136.533,341.333c-72.969,0-128-25.677-128-59.733H25.6c0,20.181,45.559,42.667,110.933,42.667
		s110.933-22.485,110.933-42.667h17.067C264.533,315.657,209.502,341.333,136.533,341.333z"/>
	<path style="fill:#EC9821;" d="M136.533,298.667c-72.969,0-128-25.677-128-59.733H25.6c0,20.181,45.559,42.667,110.933,42.667
		s110.933-22.485,110.933-42.667h17.067C264.533,272.99,209.502,298.667,136.533,298.667z"/>
	<path style="fill:#EC9821;" d="M136.533,256c-72.969,0-128-25.677-128-59.733H25.6c0,20.181,45.559,42.667,110.933,42.667
		s110.933-22.485,110.933-42.667h17.067C264.533,230.323,209.502,256,136.533,256z"/>
	<path style="fill:#EC9821;" d="M136.533,213.333c-72.969,0-128-25.677-128-59.733H25.6c0,20.181,45.559,42.667,110.933,42.667
		s110.933-22.485,110.933-42.667h17.067C264.533,187.657,209.502,213.333,136.533,213.333z"/>
	<path style="fill:#EC9821;" d="M136.533,170.667c-72.969,0-128-25.677-128-59.733H25.6c0,20.181,45.559,42.667,110.933,42.667
		s110.933-22.485,110.933-42.667h17.067C264.533,144.99,209.502,170.667,136.533,170.667z"/>
	<rect x="8.533" y="51.2" style="fill:#EC9821;" width="17.067" height="8.533"/>
	<path style="fill:#EC9821;" d="M136.533,128c-72.969,0-128-25.677-128-59.733H25.6c0,20.181,45.559,42.667,110.933,42.667
		s110.933-22.485,110.933-42.667h17.067C264.533,102.323,209.502,128,136.533,128z"/>
	<rect x="247.467" y="51.2" style="fill:#EC9821;" width="17.067" height="8.533"/>
	<path style="fill:#EC9821;" d="M264.533,401.067h-17.067V59.733c0-20.181-45.559-42.667-110.933-42.667S25.6,39.552,25.6,59.733
		v341.333H8.533V59.733C8.533,25.677,63.565,0,136.533,0s128,25.677,128,59.733V401.067z"/>
	<path style="fill:#EC9821;" d="M256,469.333v-17.067c60.365,0,103.373-19.14,110.08-37.641c0.538-1.621,0.819-3.319,0.853-5.026
		H384c-0.034,3.593-0.632,7.151-1.775,10.556C371.695,449.229,319.821,469.333,256,469.333z"/>
	<path style="fill:#EC9821;" d="M256,426.667V409.6c65.374,0,110.933-22.485,110.933-42.667H384
		C384,400.99,328.969,426.667,256,426.667z"/>
	<path style="fill:#EC9821;" d="M256,384v-17.067c65.374,0,110.933-22.485,110.933-42.667H384C384,358.323,328.969,384,256,384z"/>
	<path style="fill:#EC9821;" d="M256,341.333v-17.067c65.374,0,110.933-22.485,110.933-42.667H384
		C384,315.657,328.969,341.333,256,341.333z"/>
	<path style="fill:#EC9821;" d="M256,298.667V281.6c65.374,0,110.933-22.485,110.933-42.667H384
		C384,272.99,328.969,298.667,256,298.667z"/>
	<rect x="366.933" y="221.867" style="fill:#EC9821;" width="17.067" height="8.533"/>
	<path style="fill:#EC9821;" d="M384,409.6h-17.067V230.4c0-20.181-45.559-42.667-110.933-42.667v-17.067
		c72.969,0,128,25.677,128,59.733V409.6z"/>
	<path style="fill:#EC9821;" d="M375.467,426.667V409.6c65.374,0,110.933-22.485,110.933-42.667h17.067
		C503.467,400.99,448.435,426.667,375.467,426.667z"/>
	<path style="fill:#EC9821;" d="M375.467,384v-17.067c65.374,0,110.933-22.485,110.933-42.667h17.067
		C503.467,358.323,448.435,384,375.467,384z"/>
	<path style="fill:#EC9821;" d="M375.467,341.333v-17.067c65.374,0,110.933-22.485,110.933-42.667h17.067
		C503.467,315.657,448.435,341.333,375.467,341.333z"/>
	<path style="fill:#EC9821;" d="M503.467,366.933H486.4v-93.867c0-20.181-45.559-42.667-110.933-42.667v-17.067
		c72.969,0,128,25.677,128,59.733V366.933z"/>
</g>
<g>
</g>
<g>
</g>
<g>
</g>
<g>
</g>
<g>
</g>
<g>
</g>
<g>
</g>
<g>
</g>
<g>
</g>
<g>
</g>
<g>
</g>
<g>
</g>
<g>
</g>
<g>
</g>
<g>
</g>
</svg>
