<svg id="Layer_1" enable-background="new 0 0 512.001 512.001" height="512" viewBox="0 0 512.001 512.001" width="512" xmlns="http://www.w3.org/2000/svg"><g><g><path d="m425.772 125.849c-1.58-3.615-4.581-6.429-8.233-7.72-3.575-1.264-7.558-.986-10.931.765-.099.051-.197.104-.294.159l-20.067 11.283-12.412-18.685c-2.559-4.112-7.058-6.651-11.81-6.651-.011 0-.019 0-.028 0-4.772 0-9.272 2.539-11.831 6.651l-12.411 18.685-20.067-11.283c-.097-.055-.195-.108-.294-.159-3.373-1.751-7.357-2.028-10.931-.765-3.652 1.292-6.653 4.105-8.232 7.719-1.13 2.584-1.492 5.416-1.051 8.207l6.356 48.447c.93 7.128 6.909 12.498 13.913 12.498h.02 89.065.02c7.002 0 12.981-5.369 13.912-12.49l6.356-48.453c.443-2.791.081-5.623-1.05-8.208zm-24.492 49.15h-78.557l-4.273-32.574 17.598 9.895c4.564 2.567 10.334 1.178 13.231-3.184l12.723-19.155 12.724 19.155c2.896 4.36 8.668 5.75 13.23 3.184l17.597-9.895z"/><path d="m512.001 150c0-82.71-67.29-150-150-150-69.267 0-127.708 47.197-144.879 111.118-30.618 8.214-58.262 26.249-78.219 51.141-12.983 16.194-22.39 34.947-27.741 54.849-30.634 8.209-58.294 26.249-78.26 51.152-21.217 26.465-32.902 59.756-32.902 93.742 0 82.71 67.29 150 150 150 33.986 0 67.277-11.685 93.742-32.902 24.903-19.966 42.943-47.625 51.152-78.26 19.902-5.351 38.655-14.758 54.849-27.741 24.892-19.957 42.927-47.601 51.141-78.219 63.92-17.172 111.117-75.614 111.117-144.88zm-374.725 211.138 4.967-7.477c11.488 13.363 25.286 24.681 40.766 33.341h-72.288l-4.273-32.574 17.598 9.895c4.563 2.566 10.333 1.177 13.23-3.185zm-11.522-18.8-20.067-11.283c-.097-.055-.195-.107-.294-.159-3.373-1.75-7.357-2.029-10.931-.765-3.652 1.292-6.653 4.106-8.232 7.719-1.13 2.584-1.492 5.415-1.051 8.205l6.356 48.448c.93 7.128 6.909 12.499 13.901 12.498h.017 89.083.017c5.812 0 10.908-3.703 13.009-9.03 7.17 2.453 14.583 4.379 22.193 5.727-15.371 29.282-46.151 48.303-79.753 48.303-49.626 0-90-40.374-90-90 0-33.603 19.022-64.383 48.303-79.753 3.493 19.71 10.847 38.103 21.252 54.366zm24.246 149.663c-71.682 0-130-58.317-130-130 0-55.997 35.133-104.673 86.948-122.703-.624 5.531-.947 11.106-.947 16.702 0 1.722.04 3.434.098 5.142-18.455 8.026-34.279 20.877-45.998 37.462-13.15 18.614-20.101 40.536-20.101 63.398 0 60.654 49.346 110 110 110 22.862 0 44.785-6.951 63.396-20.101 16.585-11.719 29.436-27.542 37.462-45.998 1.708.058 3.42.098 5.142.098 5.596 0 11.171-.323 16.702-.947-18.03 51.815-66.706 86.947-122.702 86.947zm106-106.001c-71.682 0-130-58.317-130-130 0-55.992 35.127-104.665 86.935-122.698-.61 5.484-.934 11.053-.934 16.697 0 1.719.04 3.429.097 5.135-23.996 10.429-43.385 28.925-54.969 52.616-2.426 4.961-.371 10.95 4.591 13.376 1.414.691 2.911 1.019 4.385 1.019 3.7 0 7.256-2.062 8.991-5.61 8.532-17.449 22.243-31.441 39.206-40.291 3.493 19.711 10.847 38.105 21.253 54.369l-3.801 5.723-20.067-11.283c-.098-.055-.197-.108-.296-.16-3.373-1.749-7.356-2.026-10.931-.763-3.651 1.292-6.652 4.106-8.23 7.719-1.13 2.584-1.492 5.414-1.051 8.203l6.356 48.45c.93 7.128 6.909 12.499 13.901 12.498h.017 89.083.017c5.811 0 10.907-3.703 13.009-9.03 7.17 2.453 14.583 4.379 22.193 5.727-15.372 29.282-46.152 48.303-79.755 48.303-34.667 0-65.667-19.363-80.904-50.533-2.425-4.962-8.413-7.016-13.375-4.592-4.962 2.425-7.018 8.414-4.593 13.375 8.915 18.236 22.69 33.651 39.837 44.579 17.628 11.233 38.042 17.171 59.035 17.171 22.862 0 44.785-6.951 63.396-20.101 16.585-11.719 29.436-27.542 37.462-45.998 1.708.058 3.421.098 5.143.098 5.644 0 11.213-.324 16.697-.934-18.033 51.809-66.705 86.935-122.698 86.935zm-12.723-130.863 4.967-7.477c11.488 13.363 25.286 24.681 40.767 33.341h-72.288l-4.273-32.574 17.597 9.895c4.564 2.567 10.333 1.178 13.23-3.185zm118.725 24.863c-71.682 0-130-58.318-130-130s58.318-130 130-130 130 58.317 130 130-58.318 130-130 130z"/><path d="m362.002 40c-60.654 0-110 49.346-110 110s49.346 110 110 110 110-49.346 110-110-49.346-110-110-110zm0 200c-49.626 0-90-40.374-90-90s40.374-90 90-90 90 40.374 90 90-40.374 90-90 90z"/><path d="m166.001 256.001c0-5.523-4.477-10-10-10h-.008c-5.523 0-9.996 4.477-9.996 10s4.481 10 10.004 10 10-4.477 10-10z"/></g></g></svg>